<svg xmlns="http://www.w3.org/2000/svg" width="1048" height="37" viewBox="0 0 1048 37"><g transform="translate(-68 -333)"><path d="M10,0H1038a10,10,0,0,1,10,10V37a0,0,0,0,1,0,0H0a0,0,0,0,1,0,0V10A10,10,0,0,1,10,0Z" transform="translate(68 333)" fill="#90ddba"/><path d="M10,0H178a10,10,0,0,1,10,10V31a0,0,0,0,1,0,0H0a0,0,0,0,1,0,0V10A10,10,0,0,1,10,0Z" transform="translate(152 339)" fill="#fafafa"/><g transform="translate(-138 223)"><circle cx="6" cy="6" r="6" transform="translate(222 123)" fill="#709283"/><circle cx="6" cy="6" r="6" transform="translate(239 123)" fill="#709283"/><circle cx="6" cy="6" r="6" transform="translate(256 123)" fill="#709283"/></g></g></svg>